<svg width="404" height="83" viewBox="0 0 404 83" fill="none" xmlns="http://www.w3.org/2000/svg">
<rect width="404" height="83" rx="30" fill="#262626"/>
<path d="M33.6641 59V25.1797H36.8516V56.1172H53.7734V59H33.6641ZM66.5 59.4453C64.2969 59.4297 62.3594 58.9141 60.6875 57.8984C59.0156 56.8672 57.7109 55.4062 56.7734 53.5156C55.8516 51.625 55.3906 49.3906 55.3906 46.8125V46.7656C55.3906 44.1875 55.8516 41.9609 56.7734 40.0859C57.7109 38.1953 59.0156 36.7422 60.6875 35.7266C62.3594 34.6953 64.2891 34.1797 66.4766 34.1797C68.6953 34.1797 70.6328 34.6953 72.2891 35.7266C73.9609 36.7422 75.2656 38.1875 76.2031 40.0625C77.1406 41.9375 77.6094 44.1719 77.6094 46.7656V46.8125C77.6094 49.4062 77.1406 51.6484 76.2031 53.5391C75.2656 55.4141 73.9688 56.8672 72.3125 57.8984C70.6562 58.9297 68.7188 59.4453 66.5 59.4453ZM66.5234 56.6797C68.1172 56.6797 69.5078 56.2891 70.6953 55.5078C71.8828 54.7266 72.8047 53.5938 73.4609 52.1094C74.1172 50.625 74.4453 48.8594 74.4453 46.8125V46.7656C74.4453 44.7031 74.1172 42.9375 73.4609 41.4688C72.8047 40 71.875 38.8828 70.6719 38.1172C69.4844 37.3359 68.0859 36.9453 66.4766 36.9453C64.8984 36.9453 63.5156 37.3359 62.3281 38.1172C61.1406 38.8984 60.2109 40.0234 59.5391 41.4922C58.8828 42.9609 58.5547 44.7188 58.5547 46.7656V46.8125C58.5547 48.8594 58.8828 50.625 59.5391 52.1094C60.2109 53.5938 61.1406 54.7266 62.3281 55.5078C63.5156 56.2891 64.9141 56.6797 66.5234 56.6797ZM86.4453 59L79.5078 34.625H82.625L88.1094 55.5547H88.1797L94.25 34.625H97.3672L103.438 55.5547H103.531L108.992 34.625H112.109L105.172 59H101.914L95.8438 38.75H95.7734L89.7266 59H86.4453ZM125.305 59V25.1797H128.398V59H125.305ZM134.188 59V34.625H137.281V59H134.188ZM135.734 30.2188C135.172 30.2188 134.688 30.0234 134.281 29.6328C133.891 29.2266 133.695 28.7344 133.695 28.1562C133.695 27.5938 133.891 27.1172 134.281 26.7266C134.688 26.3203 135.172 26.1172 135.734 26.1172C136.312 26.1172 136.797 26.3203 137.188 26.7266C137.594 27.1172 137.797 27.5938 137.797 28.1562C137.797 28.7344 137.594 29.2266 137.188 29.6328C136.797 30.0234 136.312 30.2188 135.734 30.2188ZM152.984 67.6484C151.062 67.6484 149.391 67.3672 147.969 66.8047C146.547 66.2578 145.391 65.5156 144.5 64.5781C143.625 63.6406 143.047 62.5938 142.766 61.4375L142.719 61.25H145.836L145.93 61.4609C146.336 62.4453 147.141 63.2578 148.344 63.8984C149.562 64.5547 151.102 64.8828 152.961 64.8828C155.289 64.8828 157.102 64.2734 158.398 63.0547C159.711 61.8359 160.367 60.1875 160.367 58.1094V53.7969H160.273C159.852 54.875 159.234 55.8281 158.422 56.6562C157.625 57.4688 156.68 58.1094 155.586 58.5781C154.492 59.0469 153.289 59.2812 151.977 59.2812C149.93 59.2812 148.125 58.7656 146.562 57.7344C145.016 56.6875 143.805 55.2266 142.93 53.3516C142.07 51.4609 141.641 49.25 141.641 46.7188V46.6953C141.641 44.1797 142.078 41.9844 142.953 40.1094C143.844 38.2344 145.062 36.7812 146.609 35.75C148.172 34.7031 149.977 34.1797 152.023 34.1797C153.336 34.1797 154.531 34.4297 155.609 34.9297C156.688 35.4141 157.625 36.0781 158.422 36.9219C159.219 37.7656 159.836 38.7266 160.273 39.8047H160.367V34.625H163.438V58.3906C163.438 60.2656 163.016 61.8906 162.172 63.2656C161.328 64.6562 160.125 65.7344 158.562 66.5C157 67.2656 155.141 67.6484 152.984 67.6484ZM152.586 56.5156C154.117 56.5156 155.469 56.1094 156.641 55.2969C157.812 54.4688 158.727 53.3203 159.383 51.8516C160.039 50.3828 160.367 48.6719 160.367 46.7188V46.6953C160.367 44.7422 160.039 43.0391 159.383 41.5859C158.727 40.1172 157.812 38.9766 156.641 38.1641C155.469 37.3516 154.117 36.9453 152.586 36.9453C151.023 36.9453 149.656 37.3516 148.484 38.1641C147.312 38.9609 146.406 40.0938 145.766 41.5625C145.125 43.0156 144.805 44.7266 144.805 46.6953V46.7188C144.805 48.7031 145.125 50.4297 145.766 51.8984C146.406 53.3672 147.312 54.5078 148.484 55.3203C149.656 56.1172 151.023 56.5156 152.586 56.5156ZM168.992 59V25.1797H172.086V39.0781H172.156C172.781 37.5938 173.781 36.4141 175.156 35.5391C176.531 34.6484 178.188 34.2031 180.125 34.2031C181.891 34.2031 183.43 34.6094 184.742 35.4219C186.07 36.2188 187.094 37.3516 187.812 38.8203C188.547 40.2891 188.914 42.0156 188.914 44V59H185.844V44.4922C185.844 42.0859 185.242 40.2266 184.039 38.9141C182.852 37.6016 181.211 36.9453 179.117 36.9453C177.727 36.9453 176.5 37.2734 175.438 37.9297C174.375 38.5859 173.547 39.4922 172.953 40.6484C172.375 41.7891 172.086 43.1172 172.086 44.6328V59H168.992ZM201.406 59.4453C199.406 59.4453 197.906 58.9531 196.906 57.9688C195.922 56.9688 195.43 55.4062 195.43 53.2812V37.2266H191.844V34.625H195.43V28.0391H198.617V34.625H203.422V37.2266H198.617V53.2344C198.617 54.5781 198.898 55.5156 199.461 56.0469C200.039 56.5781 200.898 56.8438 202.039 56.8438C202.305 56.8438 202.555 56.8359 202.789 56.8203C203.039 56.7891 203.25 56.7656 203.422 56.75V59.2578C203.188 59.3047 202.883 59.3438 202.508 59.375C202.148 59.4219 201.781 59.4453 201.406 59.4453ZM227.75 67.6484C225.828 67.6484 224.156 67.3672 222.734 66.8047C221.312 66.2578 220.156 65.5156 219.266 64.5781C218.391 63.6406 217.812 62.5938 217.531 61.4375L217.484 61.25H220.602L220.695 61.4609C221.102 62.4453 221.906 63.2578 223.109 63.8984C224.328 64.5547 225.867 64.8828 227.727 64.8828C230.055 64.8828 231.867 64.2734 233.164 63.0547C234.477 61.8359 235.133 60.1875 235.133 58.1094V53.7969H235.039C234.617 54.875 234 55.8281 233.188 56.6562C232.391 57.4688 231.445 58.1094 230.352 58.5781C229.258 59.0469 228.055 59.2812 226.742 59.2812C224.695 59.2812 222.891 58.7656 221.328 57.7344C219.781 56.6875 218.57 55.2266 217.695 53.3516C216.836 51.4609 216.406 49.25 216.406 46.7188V46.6953C216.406 44.1797 216.844 41.9844 217.719 40.1094C218.609 38.2344 219.828 36.7812 221.375 35.75C222.938 34.7031 224.742 34.1797 226.789 34.1797C228.102 34.1797 229.297 34.4297 230.375 34.9297C231.453 35.4141 232.391 36.0781 233.188 36.9219C233.984 37.7656 234.602 38.7266 235.039 39.8047H235.133V34.625H238.203V58.3906C238.203 60.2656 237.781 61.8906 236.938 63.2656C236.094 64.6562 234.891 65.7344 233.328 66.5C231.766 67.2656 229.906 67.6484 227.75 67.6484ZM227.352 56.5156C228.883 56.5156 230.234 56.1094 231.406 55.2969C232.578 54.4688 233.492 53.3203 234.148 51.8516C234.805 50.3828 235.133 48.6719 235.133 46.7188V46.6953C235.133 44.7422 234.805 43.0391 234.148 41.5859C233.492 40.1172 232.578 38.9766 231.406 38.1641C230.234 37.3516 228.883 36.9453 227.352 36.9453C225.789 36.9453 224.422 37.3516 223.25 38.1641C222.078 38.9609 221.172 40.0938 220.531 41.5625C219.891 43.0156 219.57 44.7266 219.57 46.6953V46.7188C219.57 48.7031 219.891 50.4297 220.531 51.8984C221.172 53.3672 222.078 54.5078 223.25 55.3203C224.422 56.1172 225.789 56.5156 227.352 56.5156ZM250.766 59.4453C249.172 59.4453 247.766 59.1484 246.547 58.5547C245.328 57.9453 244.375 57.1016 243.688 56.0234C243.016 54.9297 242.68 53.6719 242.68 52.25V52.2031C242.68 50.8125 243.016 49.6172 243.688 48.6172C244.375 47.6172 245.367 46.8281 246.664 46.25C247.977 45.6562 249.562 45.3047 251.422 45.1953L260.562 44.6094V47.0234L251.797 47.6094C249.891 47.75 248.414 48.2188 247.367 49.0156C246.336 49.7969 245.82 50.8594 245.82 52.2031V52.25C245.82 53.5938 246.336 54.6797 247.367 55.5078C248.398 56.3203 249.734 56.7266 251.375 56.7266C252.812 56.7266 254.102 56.4297 255.242 55.8359C256.398 55.2266 257.312 54.3984 257.984 53.3516C258.672 52.3047 259.016 51.1328 259.016 49.8359V42.5938C259.016 40.8281 258.484 39.4453 257.422 38.4453C256.375 37.4453 254.898 36.9453 252.992 36.9453C251.227 36.9453 249.781 37.3438 248.656 38.1406C247.547 38.9375 246.859 40.0312 246.594 41.4219L246.547 41.6562H243.57L243.594 41.375C243.75 39.9688 244.227 38.7266 245.023 37.6484C245.82 36.5703 246.898 35.7266 248.258 35.1172C249.617 34.4922 251.211 34.1797 253.039 34.1797C254.898 34.1797 256.5 34.5156 257.844 35.1875C259.203 35.8438 260.25 36.7812 260.984 38C261.734 39.2188 262.109 40.6562 262.109 42.3125V59H259.016V54.5234H258.945C258.508 55.5078 257.875 56.3672 257.047 57.1016C256.219 57.8359 255.266 58.4141 254.188 58.8359C253.109 59.2422 251.969 59.4453 250.766 59.4453ZM267.547 59V34.625H270.641V59H267.547ZM269.094 30.2188C268.531 30.2188 268.047 30.0234 267.641 29.6328C267.25 29.2266 267.055 28.7344 267.055 28.1562C267.055 27.5938 267.25 27.1172 267.641 26.7266C268.047 26.3203 268.531 26.1172 269.094 26.1172C269.672 26.1172 270.156 26.3203 270.547 26.7266C270.953 27.1172 271.156 27.5938 271.156 28.1562C271.156 28.7344 270.953 29.2266 270.547 29.6328C270.156 30.0234 269.672 30.2188 269.094 30.2188ZM276.219 59V34.625H279.312V38.7969H279.383C280.008 37.4688 280.992 36.375 282.336 35.5156C283.68 34.6406 285.328 34.2031 287.281 34.2031C289.984 34.2031 292.094 35.0156 293.609 36.6406C295.125 38.2656 295.883 40.5156 295.883 43.3906V59H292.789V43.9062C292.789 41.6406 292.242 39.9141 291.148 38.7266C290.055 37.5391 288.469 36.9453 286.391 36.9453C284.969 36.9453 283.727 37.2656 282.664 37.9062C281.602 38.5469 280.773 39.4375 280.18 40.5781C279.602 41.7031 279.312 43.0312 279.312 44.5625V59H276.219Z" fill="#00AEFF"/>
<path d="M361.812 34.9519L368.602 33.8862" stroke="#00AEFF" stroke-width="3"/>
<path d="M355.358 24.0807L358.212 17.876" stroke="#00AEFF" stroke-width="3"/>
<path d="M339.374 24.39L337.079 17.876" stroke="#00AEFF" stroke-width="3"/>
<path d="M332.061 34.5994L325.4 33.4736" stroke="#00AEFF" stroke-width="3"/>
<path d="M341.033 53.0758C341.033 48.6414 338.291 44.9203 336.813 42.1703C335.992 40.6433 335.561 38.937 335.559 37.2031C335.559 31.368 340.895 26.6328 346.73 26.6328" stroke="#00AEFF" stroke-width="3"/>
<path d="M352.428 53.0758C352.428 48.6414 355.17 44.9203 356.648 42.1703C357.469 40.6433 357.9 38.937 357.902 37.2031C357.902 31.368 352.566 26.6328 346.73 26.6328" stroke="#00AEFF" stroke-width="3"/>
<path d="M353.253 52.8354H340.629C339.622 52.8354 338.807 53.6511 338.807 54.6573V54.6659C338.807 55.6721 339.622 56.4878 340.629 56.4878H353.253C354.259 56.4878 355.075 55.6721 355.075 54.6659V54.6573C355.075 53.6511 354.259 52.8354 353.253 52.8354Z" stroke="#00AEFF" stroke-width="3"/>
<path d="M352.256 56.479H341.626C340.619 56.479 339.804 57.2947 339.804 58.3009V58.3095C339.804 59.3157 340.619 60.1313 341.626 60.1313H352.256C353.262 60.1313 354.078 59.3157 354.078 58.3095V58.3009C354.078 57.2947 353.262 56.479 352.256 56.479Z" stroke="#00AEFF" stroke-width="3"/>
<path d="M349.712 60.1313V60.8532C349.742 61.235 349.693 61.6188 349.567 61.9806C349.442 62.3424 349.243 62.6743 348.983 62.9555C348.723 63.2367 348.408 63.4611 348.057 63.6146C347.706 63.768 347.328 63.8473 346.945 63.8473C346.562 63.8473 346.183 63.768 345.832 63.6146C345.481 63.4611 345.166 63.2367 344.906 62.9555C344.646 62.6743 344.447 62.3424 344.322 61.9806C344.197 61.6188 344.147 61.235 344.178 60.8532V60.1313" stroke="#00AEFF" stroke-width="3"/>
<path d="M339.614 36.5588C339.657 35.7128 339.866 34.8835 340.23 34.1184C340.594 33.3533 341.105 32.6674 341.734 32.0999C342.363 31.5324 343.097 31.0945 343.895 30.8112C344.694 30.5278 345.54 30.4046 346.386 30.4486" stroke="#00AEFF" stroke-width="3"/>
</svg>
