<svg width="217" height="58" viewBox="0 0 217 58" fill="none" xmlns="http://www.w3.org/2000/svg">
<path opacity="0.5" d="M5 32.0938V25.5938H16.3438C19.2604 25.5938 21.5104 24.8542 23.0938 23.375C24.6979 21.875 25.5 19.7708 25.5 17.0625V17C25.5 14.2708 24.6979 12.1667 23.0938 10.6875C21.5104 9.20833 19.2604 8.46875 16.3438 8.46875H5V1.90625H18.3438C21.3854 1.90625 24.0521 2.53125 26.3438 3.78125C28.6562 5.03125 30.4583 6.79167 31.75 9.0625C33.0417 11.3125 33.6875 13.9479 33.6875 16.9688V17.0312C33.6875 20.0312 33.0417 22.6667 31.75 24.9375C30.4583 27.1875 28.6562 28.9479 26.3438 30.2188C24.0521 31.4688 21.3854 32.0938 18.3438 32.0938H5ZM0.96875 47V1.90625H9.03125V47H0.96875ZM38.8125 47V13.875H46.5625V19.5938H46.75C47.25 17.5938 48.1562 16.0312 49.4688 14.9062C50.8021 13.7604 52.4271 13.1875 54.3438 13.1875C54.8229 13.1875 55.2812 13.2188 55.7188 13.2812C56.1562 13.3438 56.5208 13.4167 56.8125 13.5V20.5312C56.5 20.4062 56.0521 20.3021 55.4688 20.2188C54.9062 20.1354 54.2917 20.0938 53.625 20.0938C52.1667 20.0938 50.9062 20.3958 49.8438 21C48.7812 21.5833 47.9688 22.4479 47.4062 23.5938C46.8438 24.7396 46.5625 26.1354 46.5625 27.7812V47H38.8125ZM61.0312 47V13.875H68.8125V47H61.0312ZM64.9062 9.125C63.6979 9.125 62.6771 8.70833 61.8438 7.875C61.0104 7.04167 60.5938 6.04167 60.5938 4.875C60.5938 3.6875 61.0104 2.6875 61.8438 1.875C62.6771 1.04167 63.6979 0.625 64.9062 0.625C66.1354 0.625 67.1667 1.04167 68 1.875C68.8333 2.6875 69.25 3.6875 69.25 4.875C69.25 6.04167 68.8333 7.04167 68 7.875C67.1667 8.70833 66.1354 9.125 64.9062 9.125ZM75.4375 47V13.875H83.1875V19.1875H83.375C84.0625 17.375 85.2188 15.9271 86.8438 14.8438C88.4688 13.7396 90.375 13.1875 92.5625 13.1875C94.1042 13.1875 95.4896 13.4583 96.7188 14C97.9479 14.5208 98.9896 15.2812 99.8438 16.2812C100.719 17.2604 101.354 18.4583 101.75 19.875H101.906C102.448 18.5 103.219 17.3229 104.219 16.3438C105.24 15.3438 106.427 14.5729 107.781 14.0312C109.156 13.4688 110.635 13.1875 112.219 13.1875C114.406 13.1875 116.302 13.6562 117.906 14.5938C119.531 15.5104 120.792 16.8021 121.688 18.4688C122.604 20.1146 123.062 22.0521 123.062 24.2812V47H115.281V26.1875C115.281 24.8125 115.052 23.6458 114.594 22.6875C114.135 21.7292 113.469 21 112.594 20.5C111.719 20 110.635 19.75 109.344 19.75C108.094 19.75 106.99 20.0417 106.031 20.625C105.094 21.1875 104.354 21.9792 103.812 23C103.292 24.0208 103.031 25.1979 103.031 26.5312V47H95.4688V25.7812C95.4688 24.5312 95.2292 23.4583 94.75 22.5625C94.2708 21.6667 93.5938 20.9792 92.7188 20.5C91.8438 20 90.8021 19.75 89.5938 19.75C88.3438 19.75 87.2396 20.0521 86.2812 20.6562C85.3229 21.2604 84.5625 22.0833 84 23.125C83.4583 24.1667 83.1875 25.3646 83.1875 26.7188V47H75.4375ZM139.094 47.5625C136.906 47.5625 134.969 47.1458 133.281 46.3125C131.615 45.4583 130.312 44.2812 129.375 42.7812C128.458 41.2604 128 39.5208 128 37.5625V37.5C128 35.5208 128.49 33.8333 129.469 32.4375C130.469 31.0208 131.906 29.9062 133.781 29.0938C135.656 28.2604 137.927 27.7604 140.594 27.5938L153.25 26.8125V31.9688L141.688 32.6875C139.771 32.8125 138.302 33.2708 137.281 34.0625C136.26 34.8542 135.75 35.9062 135.75 37.2188V37.25C135.75 38.6042 136.26 39.6771 137.281 40.4688C138.323 41.2396 139.698 41.625 141.406 41.625C142.906 41.625 144.24 41.3229 145.406 40.7188C146.594 40.1146 147.531 39.2917 148.219 38.25C148.906 37.2083 149.25 36.0312 149.25 34.7188V24.7812C149.25 23.1146 148.719 21.8021 147.656 20.8438C146.615 19.8646 145.104 19.375 143.125 19.375C141.292 19.375 139.823 19.7708 138.719 20.5625C137.615 21.3333 136.927 22.3333 136.656 23.5625L136.594 23.8438H129.406L129.438 23.4688C129.604 21.5104 130.26 19.7604 131.406 18.2188C132.552 16.6562 134.135 15.4271 136.156 14.5312C138.198 13.6354 140.615 13.1875 143.406 13.1875C146.177 13.1875 148.573 13.6458 150.594 14.5625C152.635 15.4792 154.208 16.7604 155.312 18.4062C156.438 20.0521 157 21.9896 157 24.2188V47H149.25V41.9062H149.062C148.438 43.0521 147.625 44.0521 146.625 44.9062C145.625 45.7604 144.479 46.4167 143.188 46.875C141.917 47.3333 140.552 47.5625 139.094 47.5625ZM163.312 47V13.875H171.062V19.5938H171.25C171.75 17.5938 172.656 16.0312 173.969 14.9062C175.302 13.7604 176.927 13.1875 178.844 13.1875C179.323 13.1875 179.781 13.2188 180.219 13.2812C180.656 13.3438 181.021 13.4167 181.312 13.5V20.5312C181 20.4062 180.552 20.3021 179.969 20.2188C179.406 20.1354 178.792 20.0938 178.125 20.0938C176.667 20.0938 175.406 20.3958 174.344 21C173.281 21.5833 172.469 22.4479 171.906 23.5938C171.344 24.7396 171.062 26.1354 171.062 27.7812V47H163.312ZM190.812 58C190.062 58 189.323 57.9583 188.594 57.875C187.885 57.8125 187.292 57.7396 186.812 57.6562V51.75C187.104 51.7917 187.469 51.8438 187.906 51.9062C188.344 51.9688 188.844 52 189.406 52C190.906 52 192.094 51.7396 192.969 51.2188C193.844 50.7188 194.531 49.7708 195.031 48.375L195.5 47.0312L183.594 13.875H192.062L200.312 42L199.125 40.375H200.781L199.594 42L207.844 13.875H216.031L204.094 48.125C203.26 50.5417 202.25 52.4688 201.062 53.9062C199.875 55.3646 198.438 56.4062 196.75 57.0312C195.083 57.6771 193.104 58 190.812 58Z" fill="white"/>
</svg>
