<svg width="620" height="614" viewBox="0 0 620 614" fill="none" xmlns="http://www.w3.org/2000/svg">
<g filter="url(#filter0_d_83_267)">
<path d="M260 600C121.929 600 10 488.071 10 350L10 250C10 111.929 121.929 0 260 0H360C498.071 0 610 111.929 610 250V350C610 488.071 498.071 600 360 600H260Z" fill="#262626"/>
</g>
<circle cx="310" cy="300" r="163" stroke="white" stroke-width="12"/>
<path d="M460 300C460 382.843 392.843 450 310 450C227.157 450 160 382.843 160 300C160 217.157 227.157 150 310 150C392.843 150 460 217.157 460 300Z" fill="#FA3532"/>
<defs>
<filter id="filter0_d_83_267" x="0" y="-6" width="620" height="620" filterUnits="userSpaceOnUse" color-interpolation-filters="sRGB">
<feFlood flood-opacity="0" result="BackgroundImageFix"/>
<feColorMatrix in="SourceAlpha" type="matrix" values="0 0 0 0 0 0 0 0 0 0 0 0 0 0 0 0 0 0 127 0" result="hardAlpha"/>
<feOffset dy="4"/>
<feGaussianBlur stdDeviation="5"/>
<feComposite in2="hardAlpha" operator="out"/>
<feColorMatrix type="matrix" values="0 0 0 0 0 0 0 0 0 0 0 0 0 0 0 0 0 0 0.25 0"/>
<feBlend mode="normal" in2="BackgroundImageFix" result="effect1_dropShadow_83_267"/>
<feBlend mode="normal" in="SourceGraphic" in2="effect1_dropShadow_83_267" result="shape"/>
</filter>
</defs>
</svg>
