<svg width="168" height="114" viewBox="0 0 168 114" fill="none" xmlns="http://www.w3.org/2000/svg">
<path d="M75.9491 30.887C76.2397 29.1368 77.7574 27.8516 79.5335 27.8516H87.9067C89.6828 27.8516 91.2005 29.1368 91.4911 30.887L92.1789 35.0235C92.3823 36.2313 93.1896 37.2388 94.2617 37.8329C94.5007 37.9621 94.7364 38.1009 94.9721 38.243C96.0216 38.8759 97.2971 39.0729 98.4435 38.6434L102.373 37.1709C103.179 36.8681 104.065 36.8609 104.876 37.1506C105.686 37.4404 106.367 38.0083 106.797 38.7532L110.982 46.0092C111.412 46.7541 111.563 47.6274 111.41 48.4736C111.256 49.3197 110.807 50.0839 110.143 50.6301L106.904 53.3006C105.958 54.0789 105.49 55.2801 105.515 56.504C105.52 56.7784 105.52 57.0529 105.515 57.3274C105.49 58.548 105.958 59.7493 106.904 60.5275L110.146 63.198C111.515 64.3282 111.87 66.2819 110.986 67.8157L106.794 75.0717C106.364 75.8164 105.684 76.3845 104.874 76.6748C104.065 76.9652 103.179 76.9589 102.373 76.6572L98.4435 75.1847C97.2971 74.7552 96.0216 74.9522 94.9689 75.5851C94.7348 75.7275 94.498 75.8653 94.2585 75.9984C93.1896 76.5894 92.3823 77.5969 92.1789 78.8046L91.4911 82.9411C91.2005 84.6946 89.6828 85.9766 87.9067 85.9766H79.5303C77.7542 85.9766 76.2397 84.6914 75.9459 82.9411L75.2581 78.8046C75.0579 77.5969 74.2506 76.5894 73.1785 75.9952C72.939 75.8631 72.7022 75.7264 72.4681 75.5851C71.4186 74.9522 70.1431 74.7552 68.9935 75.1847L65.0636 76.6572C64.2587 76.9592 63.3727 76.9659 62.5632 76.6762C61.7538 76.3865 61.0733 75.8191 60.6429 75.0749L56.4546 67.819C56.025 67.074 55.8735 66.2007 56.0273 65.3546C56.181 64.5084 56.63 63.7442 57.2942 63.198L60.5363 60.5275C61.4792 59.7525 61.9474 58.548 61.9248 57.3274C61.9198 57.0529 61.9198 56.7784 61.9248 56.504C61.9474 55.2769 61.4792 54.0789 60.5363 53.3006L57.2942 50.6301C56.6308 50.084 56.1823 49.3205 56.0286 48.475C55.8749 47.6296 56.0258 46.7571 56.4546 46.0124L60.6429 38.7565C61.0729 38.011 61.7537 37.4424 62.5639 37.152C63.3741 36.8616 64.2611 36.8683 65.0668 37.1709L68.9935 38.6434C70.1431 39.0729 71.4186 38.8759 72.4681 38.243C72.7006 38.1009 72.9395 37.9653 73.1785 37.8297C74.2506 37.2388 75.0579 36.2313 75.2581 35.0235L75.9491 30.887Z" stroke="white" stroke-width="5.8125" stroke-linecap="round" stroke-linejoin="round"/>
<path d="M93.4063 56.9141C93.4063 59.4833 92.3856 61.9474 90.5688 63.7642C88.7521 65.5809 86.288 66.6016 83.7188 66.6016C81.1495 66.6016 78.6854 65.5809 76.8687 63.7642C75.0519 61.9474 74.0312 59.4833 74.0312 56.9141C74.0312 54.3448 75.0519 51.8807 76.8687 50.064C78.6854 48.2472 81.1495 47.2266 83.7188 47.2266C86.288 47.2266 88.7521 48.2472 90.5688 50.064C92.3856 51.8807 93.4063 54.3448 93.4063 56.9141Z" stroke="white" stroke-width="5.8125" stroke-linecap="round" stroke-linejoin="round"/>
</svg>
