<svg width="338" height="338" viewBox="0 0 338 338" fill="none" xmlns="http://www.w3.org/2000/svg">
<circle cx="169" cy="169" r="163" stroke="white" stroke-width="12"/>
<path d="M99 130.8C99 119.788 99 114.281 101.109 110.06C103.045 106.186 106.186 103.045 110.06 101.109C114.281 99 119.788 99 130.8 99H207.2C218.212 99 223.719 99 227.94 101.109C231.814 103.045 234.955 106.186 236.891 110.06C239 114.281 239 119.788 239 130.8V207.2C239 218.212 239 223.719 236.891 227.94C234.955 231.814 231.814 234.955 227.94 236.891C223.719 239 218.212 239 207.2 239H130.8C119.788 239 114.281 239 110.06 236.891C106.186 234.955 103.045 231.814 101.109 227.94C99 223.719 99 218.212 99 207.2V130.8Z" fill="#FA3532"/>
</svg>
