<svg width="600" height="600" viewBox="0 0 600 600" fill="none" xmlns="http://www.w3.org/2000/svg">
<path d="M600 300C600 465.685 465.685 600 300 600C134.315 600 0 465.685 0 300C0 134.315 134.315 0 300 0C465.685 0 600 134.315 600 300Z" fill="#16C432"/>
<path opacity="0.9" d="M130.988 406L74.2988 194.623H113.557L150.324 354.145H151.057L193.391 194.623H227.668L270.002 354.145H270.734L307.502 194.623H346.613L290.07 406H253.596L210.969 254.242H210.09L167.463 406H130.988ZM390.559 406V376.703H451.643C465.51 376.703 476.057 373.92 483.283 368.354C490.607 362.787 494.27 354.682 494.27 344.037V343.744C494.27 336.615 492.561 330.658 489.143 325.873C485.822 320.99 480.842 317.377 474.201 315.033C467.561 312.592 459.309 311.371 449.445 311.371H390.559V283.979H443.439C457.111 283.979 467.512 281.293 474.641 275.922C481.77 270.551 485.334 262.836 485.334 252.777V252.484C485.334 243.402 482.209 236.371 475.959 231.391C469.807 226.41 461.115 223.92 449.885 223.92H390.559V194.623H459.406C472.297 194.623 483.43 196.82 492.805 201.215C502.277 205.512 509.602 211.615 514.777 219.525C520.051 227.436 522.688 236.762 522.688 247.504V247.797C522.688 255.414 520.93 262.543 517.414 269.184C513.996 275.727 509.26 281.244 503.205 285.736C497.15 290.131 490.363 292.865 482.844 293.939V294.672C492.707 295.551 501.398 298.285 508.918 302.875C516.438 307.465 522.297 313.471 526.496 320.893C530.695 328.217 532.795 336.566 532.795 345.941V346.234C532.795 358.539 529.865 369.184 524.006 378.168C518.146 387.055 509.797 393.939 498.957 398.822C488.215 403.607 475.324 406 460.285 406H390.559ZM371.662 406V194.623H409.455V406H371.662Z" fill="white"/>
</svg>
